# Blender v2.90.0 OBJ File: ''
# www.blender.org
o Circle_Circle.001
v 0.000000 0.000000 -1.000000
v -0.195090 0.000000 -0.980785
v -0.382683 0.000000 -0.923880
v -0.555570 0.000000 -0.831470
v -0.707107 0.000000 -0.707107
v -0.831470 0.000000 -0.555570
v -0.923880 0.000000 -0.382683
v -0.980785 0.000000 -0.195090
v -1.000000 0.000000 -0.000000
v -0.980785 0.000000 0.195090
v -0.923880 0.000000 0.382683
v -0.831470 0.000000 0.555570
v -0.707107 0.000000 0.707107
v -0.555570 0.000000 0.831470
v -0.382683 0.000000 0.923880
v -0.195090 0.000000 0.980785
v 0.000000 0.000000 1.000000
v 0.195091 0.000000 0.980785
v 0.382684 0.000000 0.923879
v 0.555571 0.000000 0.831469
v 0.707107 0.000000 0.707106
v 0.831470 0.000000 0.555570
v 0.923880 0.000000 0.382683
v 0.980785 0.000000 0.195089
v 1.000000 0.000000 -0.000001
v 0.980785 0.000000 -0.195091
v 0.923879 0.000000 -0.382684
v 0.831469 0.000000 -0.555571
v 0.707106 0.000000 -0.707108
v 0.555569 0.000000 -0.831470
v 0.382682 0.000000 -0.923880
v 0.195089 0.000000 -0.980786
v -0.195090 0.100000 -0.980785
v 0.000000 0.100000 -1.000000
v -0.382683 0.100000 -0.923880
v -0.555570 0.100000 -0.831470
v -0.707107 0.100000 -0.707107
v -0.831470 0.100000 -0.555570
v -0.923880 0.100000 -0.382683
v -0.980785 0.100000 -0.195090
v -1.000000 0.100000 -0.000000
v -0.980785 0.100000 0.195090
v -0.923880 0.100000 0.382683
v -0.831470 0.100000 0.555570
v -0.707107 0.100000 0.707107
v -0.555570 0.100000 0.831470
v -0.382683 0.100000 0.923880
v -0.195090 0.100000 0.980785
v 0.000000 0.100000 1.000000
v 0.195091 0.100000 0.980785
v 0.382684 0.100000 0.923879
v 0.555571 0.100000 0.831469
v 0.707107 0.100000 0.707106
v 0.831470 0.100000 0.555570
v 0.923880 0.100000 0.382683
v 0.980785 0.100000 0.195089
v 1.000000 0.100000 -0.000001
v 0.980785 0.100000 -0.195091
v 0.923879 0.100000 -0.382684
v 0.831469 0.100000 -0.555571
v 0.707106 0.100000 -0.707108
v 0.555569 0.100000 -0.831470
v 0.382682 0.100000 -0.923880
v 0.195089 0.100000 -0.980786
vt 0.125534 0.043979
vt 0.197938 0.132205
vt 0.109713 0.204610
vt 0.163238 0.549875
vt 0.596285 0.194483
vt 0.951678 0.627529
vt 0.972108 0.375019
vt 0.988047 0.406265
vt 0.972108 0.406265
vt 0.972109 0.937433
vt 0.988047 0.968679
vt 0.972109 0.968679
vt 0.972108 0.343774
vt 0.988047 0.375019
vt 0.972109 0.906188
vt 0.988047 0.937433
vt 0.972109 0.312529
vt 0.988047 0.343774
vt 0.972109 0.874943
vt 0.988047 0.906188
vt 0.972109 0.281284
vt 0.988047 0.312529
vt 0.972109 0.843698
vt 0.988047 0.874943
vt 0.972109 0.250038
vt 0.988047 0.281284
vt 0.972109 0.656226
vt 0.988047 0.687472
vt 0.972109 0.687472
vt 0.972109 0.812452
vt 0.988047 0.843698
vt 0.972109 0.218793
vt 0.988047 0.250038
vt 0.972109 0.624981
vt 0.988047 0.656226
vt 0.972109 0.781207
vt 0.988047 0.812452
vt 0.972109 0.187548
vt 0.988047 0.218793
vt 0.972109 0.593736
vt 0.988047 0.624981
vt 0.972109 0.749962
vt 0.988047 0.781207
vt 0.972109 0.156302
vt 0.988047 0.187548
vt 0.972109 0.562491
vt 0.988047 0.593736
vt 0.972109 0.718717
vt 0.988047 0.749962
vt 0.972109 0.125057
vt 0.988047 0.156302
vt 0.972109 0.531246
vt 0.988047 0.562491
vt 0.988047 0.718717
vt 0.972109 0.093812
vt 0.988047 0.125057
vt 0.972108 0.500000
vt 0.988047 0.531246
vt 0.972109 0.062567
vt 0.988047 0.093812
vt 0.972108 0.468755
vt 0.988047 0.500000
vt 0.972109 0.031321
vt 0.988047 0.062567
vt 0.972108 0.437510
vt 0.988047 0.468755
vt 0.972109 0.000076
vt 0.988047 0.031321
vt 0.988047 0.437510
vt 0.988047 0.999924
vt 0.972109 0.999924
vt 0.037308 0.116384
vt 0.040395 0.100868
vt 0.046449 0.086251
vt 0.055238 0.073097
vt 0.066425 0.061910
vt 0.079580 0.053120
vt 0.094196 0.047066
vt 0.109713 0.043979
vt 0.141050 0.047066
vt 0.155667 0.053120
vt 0.168821 0.061910
vt 0.180008 0.073097
vt 0.188798 0.086251
vt 0.194852 0.100868
vt 0.197938 0.116384
vt 0.194852 0.147722
vt 0.188798 0.162338
vt 0.180008 0.175493
vt 0.168821 0.186680
vt 0.155667 0.195469
vt 0.141050 0.201523
vt 0.125534 0.204610
vt 0.094196 0.201523
vt 0.079580 0.195469
vt 0.066425 0.186679
vt 0.055238 0.175493
vt 0.046449 0.162338
vt 0.040395 0.147722
vt 0.037308 0.132205
vt 0.178388 0.473713
vt 0.306157 0.282492
vt 0.208105 0.401970
vt 0.251248 0.337402
vt 0.370724 0.239350
vt 0.442468 0.209632
vt 0.518630 0.194483
vt 0.672447 0.209632
vt 0.744191 0.239349
vt 0.808758 0.282491
vt 0.863668 0.337401
vt 0.906811 0.401968
vt 0.936528 0.473712
vt 0.951678 0.549875
vt 0.936529 0.703691
vt 0.906811 0.775435
vt 0.863669 0.840002
vt 0.808759 0.894912
vt 0.744191 0.938055
vt 0.672448 0.967772
vt 0.596286 0.982922
vt 0.518631 0.982922
vt 0.442470 0.967773
vt 0.370725 0.938056
vt 0.306158 0.894913
vt 0.251248 0.840003
vt 0.208105 0.775435
vt 0.178388 0.703692
vt 0.163238 0.627530
vt 0.988047 0.000076
vn 0.0000 -1.0000 0.0000
vn 0.0000 1.0000 -0.0000
vn -0.9569 0.0000 0.2903
vn 0.9952 0.0000 0.0980
vn -0.8819 0.0000 0.4714
vn 0.9952 0.0000 -0.0980
vn -0.7730 0.0000 0.6344
vn 0.9569 0.0000 -0.2903
vn -0.6344 0.0000 0.7730
vn 0.8819 0.0000 -0.4714
vn -0.4714 0.0000 0.8819
vn -0.0980 0.0000 -0.9952
vn 0.7730 0.0000 -0.6344
vn -0.2903 0.0000 0.9569
vn -0.2903 0.0000 -0.9569
vn 0.6344 0.0000 -0.7730
vn -0.0980 0.0000 0.9952
vn -0.4714 0.0000 -0.8819
vn 0.4714 0.0000 -0.8819
vn 0.0980 0.0000 0.9952
vn -0.6344 0.0000 -0.7730
vn 0.2903 0.0000 -0.9569
vn 0.2903 0.0000 0.9569
vn -0.7730 0.0000 -0.6344
vn 0.0980 0.0000 -0.9952
vn 0.4714 0.0000 0.8819
vn -0.8819 0.0000 -0.4714
vn 0.6344 0.0000 0.7730
vn -0.9569 0.0000 -0.2903
vn 0.7730 0.0000 0.6344
vn -0.9952 0.0000 -0.0980
vn 0.8819 0.0000 0.4714
vn -0.9952 0.0000 0.0980
vn 0.9569 0.0000 0.2903
s off
f 27/1/1 19/2/1 11/3/1
f 34/4/2 41/5/2 49/6/2
f 11/7/3 42/8/3 10/9/3
f 25/10/4 56/11/4 24/12/4
f 12/13/5 43/14/5 11/7/5
f 26/15/6 57/16/6 25/10/6
f 13/17/7 44/18/7 12/13/7
f 27/19/8 58/20/8 26/15/8
f 14/21/9 45/22/9 13/17/9
f 28/23/10 59/24/10 27/19/10
f 15/25/11 46/26/11 14/21/11
f 2/27/12 34/28/12 1/29/12
f 29/30/13 60/31/13 28/23/13
f 16/32/14 47/33/14 15/25/14
f 3/34/15 33/35/15 2/27/15
f 30/36/16 61/37/16 29/30/16
f 17/38/17 48/39/17 16/32/17
f 4/40/18 35/41/18 3/34/18
f 31/42/19 62/43/19 30/36/19
f 18/44/20 49/45/20 17/38/20
f 5/46/21 36/47/21 4/40/21
f 32/48/22 63/49/22 31/42/22
f 19/50/23 50/51/23 18/44/23
f 6/52/24 37/53/24 5/46/24
f 1/29/25 64/54/25 32/48/25
f 20/55/26 51/56/26 19/50/26
f 7/57/27 38/58/27 6/52/27
f 21/59/28 52/60/28 20/55/28
f 8/61/29 39/62/29 7/57/29
f 22/63/30 53/64/30 21/59/30
f 9/65/31 40/66/31 8/61/31
f 23/67/32 54/68/32 22/63/32
f 10/9/33 41/69/33 9/65/33
f 24/12/34 55/70/34 23/71/34
f 3/72/1 2/73/1 1/74/1
f 1/74/1 32/75/1 3/72/1
f 32/75/1 31/76/1 3/72/1
f 31/76/1 30/77/1 29/78/1
f 29/78/1 28/79/1 27/1/1
f 27/1/1 26/80/1 25/81/1
f 25/81/1 24/82/1 27/1/1
f 24/82/1 23/83/1 27/1/1
f 23/83/1 22/84/1 19/2/1
f 22/84/1 21/85/1 19/2/1
f 21/85/1 20/86/1 19/2/1
f 19/2/1 18/87/1 17/88/1
f 17/88/1 16/89/1 15/90/1
f 15/90/1 14/91/1 13/92/1
f 13/92/1 12/93/1 11/3/1
f 11/3/1 10/94/1 9/95/1
f 9/95/1 8/96/1 11/3/1
f 8/96/1 7/97/1 11/3/1
f 7/97/1 6/98/1 5/99/1
f 5/99/1 4/100/1 3/72/1
f 31/76/1 29/78/1 3/72/1
f 29/78/1 27/1/1 3/72/1
f 19/2/1 17/88/1 11/3/1
f 17/88/1 15/90/1 11/3/1
f 15/90/1 13/92/1 11/3/1
f 7/97/1 5/99/1 11/3/1
f 5/99/1 3/72/1 11/3/1
f 27/1/1 23/83/1 19/2/1
f 3/72/1 27/1/1 11/3/1
f 34/4/2 33/101/2 37/102/2
f 33/101/2 35/103/2 37/102/2
f 35/103/2 36/104/2 37/102/2
f 37/102/2 38/105/2 39/106/2
f 39/106/2 40/107/2 37/102/2
f 40/107/2 41/5/2 37/102/2
f 41/5/2 42/108/2 43/109/2
f 43/109/2 44/110/2 45/111/2
f 45/111/2 46/112/2 47/113/2
f 47/113/2 48/114/2 45/111/2
f 48/114/2 49/6/2 45/111/2
f 49/6/2 50/115/2 51/116/2
f 51/116/2 52/117/2 53/118/2
f 53/118/2 54/119/2 55/120/2
f 55/120/2 56/121/2 53/118/2
f 56/121/2 57/122/2 53/118/2
f 57/122/2 58/123/2 59/124/2
f 59/124/2 60/125/2 61/126/2
f 61/126/2 62/127/2 63/128/2
f 63/128/2 64/129/2 61/126/2
f 64/129/2 34/4/2 61/126/2
f 41/5/2 43/109/2 49/6/2
f 43/109/2 45/111/2 49/6/2
f 49/6/2 51/116/2 57/122/2
f 51/116/2 53/118/2 57/122/2
f 57/122/2 59/124/2 61/126/2
f 34/4/2 37/102/2 41/5/2
f 57/122/2 61/126/2 49/6/2
f 61/126/2 34/4/2 49/6/2
f 11/7/3 43/14/3 42/8/3
f 25/10/4 57/16/4 56/11/4
f 12/13/5 44/18/5 43/14/5
f 26/15/6 58/20/6 57/16/6
f 13/17/7 45/22/7 44/18/7
f 27/19/8 59/24/8 58/20/8
f 14/21/9 46/26/9 45/22/9
f 28/23/10 60/31/10 59/24/10
f 15/25/11 47/33/11 46/26/11
f 2/27/12 33/35/12 34/28/12
f 29/30/13 61/37/13 60/31/13
f 16/32/14 48/39/14 47/33/14
f 3/34/15 35/41/15 33/35/15
f 30/36/16 62/43/16 61/37/16
f 17/38/17 49/45/17 48/39/17
f 4/40/18 36/47/18 35/41/18
f 31/42/19 63/49/19 62/43/19
f 18/44/20 50/51/20 49/45/20
f 5/46/21 37/53/21 36/47/21
f 32/48/22 64/54/22 63/49/22
f 19/50/23 51/56/23 50/51/23
f 6/52/24 38/58/24 37/53/24
f 1/29/25 34/28/25 64/54/25
f 20/55/26 52/60/26 51/56/26
f 7/57/27 39/62/27 38/58/27
f 21/59/28 53/64/28 52/60/28
f 8/61/29 40/66/29 39/62/29
f 22/63/30 54/68/30 53/64/30
f 9/65/31 41/69/31 40/66/31
f 23/67/32 55/130/32 54/68/32
f 10/9/33 42/8/33 41/69/33
f 24/12/34 56/11/34 55/70/34
